PathFileType	4	(X/Y/Z)	30_1_53_p1_0-567.trc
DataRate	CameraRate	NumFrames	NumMarkers	Units	OrigDataRate	OrigDataStartFrame	OrigNumFrames
59.0	59.0	6	27	m	59.0	142	568
Frame#	Time	RHip			RKnee			RAnkle			RBigToe			RSmallToe			RHeel			LHip			LKnee			LAnkle			LBigToe			LSmallToe			LHeel			Neck			Head			Nose			RShoulder			RElbow			RWrist			RThumb			RIndex			RPinky			LShoulder			LElbow			LWrist			LThumb			LIndex			LPinky			
		X1	Y1	Z1	X2	Y2	Z2	X3	Y3	Z3	X4	Y4	Z4	X5	Y5	Z5	X6	Y6	Z6	X7	Y7	Z7	X8	Y8	Z8	X9	Y9	Z9	X10	Y10	Z10	X11	Y11	Z11	X12	Y12	Z12	X13	Y13	Z13	X14	Y14	Z14	X15	Y15	Z15	X16	Y16	Z16	X17	Y17	Z17	X18	Y18	Z18	X19	Y19	Z19	X20	Y20	Z20	X21	Y21	Z21	X22	Y22	Z22	X23	Y23	Z23	X24	Y24	Z24	X25	Y25	Z25	X26	Y26	Z26	X27	Y27	Z27	
142	2.406779661016949	0.2706249518570884	0.5375988532610594	0.878206379927731	0.28018879633099036	0.5376677123230442	1.3414914462623992	0.26748761260117054	0.5365366035284961	1.8075094305405632	0.2512927004039195	0.3336641328859941	1.7976993787129698	0.3192213954180473	0.34550167959894573	1.7787435793074886	0.2612630306895021	0.6399288717969265	1.897233243009844	0.04612468184248634	0.5316846662951095	0.893737765777905	0.06839851612898737	0.5063485517397717	1.3439892062513163	0.08030133294411652	0.5161403747975143	1.817724244259026	0.12134898146335665	0.3095957294053145	1.7693222591165156	0.07169066462337229	0.3208502742095617	1.7703117028379431	0.09122194839453714	0.5538287408328484	1.8678390799580566	0.08917967406186716	0.4437669676074866	0.2324804676574834	0.08466401625222937	0.3710329722987408	-0.0057782591628021155	0.07802194234009856	0.29611877185397834	0.1263707749394192	0.2762285300879822	0.4183595688178161	0.32051628569124635	0.33729906371084345	0.1985837018006947	0.507282825783764	0.1739897357452054	0.08838679341827586	0.4608852495374911	0.03488718125213726	0.005730522623766895	0.3944544532314263	0.031675115441707515	-0.0383346963464663	0.3847928001372507	0.04831100074903457	0.02051346071732796	0.4091014815402582	-0.07426241031199891	0.4978565677789803	0.3474010575768354	-0.2518553936188054	0.4428015712206919	0.5479564848449332	-0.3162291512087128	0.2623073073004267	0.49046682188867313	-0.31890090348266853	0.1616249582204202	0.4342820039175688	-0.34704049823973654	0.11599390979000097	0.4131119197942592	-0.37502923377254616	0.1526104631984437	0.4499538314608612
143	2.4237288135593222	0.2661647062199597	0.5376940325599965	0.8746234336489701	0.2801167977247454	0.5379059142463558	1.3414839191609875	0.26745688007592633	0.5364753980989972	1.8073125961019436	0.25129697869849754	0.3335203940601665	1.7972236264073012	0.31921211270767114	0.3452903758458632	1.7783915884583263	0.260096754573041	0.6386465650254429	1.8903306206186348	0.04594493532110351	0.5320002327175042	0.8938402965586989	0.06760906486772693	0.5052856634213007	1.3390365056422793	0.0801286966068954	0.5158952552383959	1.817308039964958	0.12162312568801327	0.3092492631220384	1.7691932787224531	0.08071454892208135	0.3091932454816365	1.7620894559645373	0.09114247722059825	0.553646936339815	1.8673206965330074	0.08921420032224849	0.44380150488644227	0.23230551552590717	0.08802775385375956	0.359397127197429	-0.008845453584297294	0.08164112092954667	0.2977718733570199	0.12634141914925492	0.27311126862719054	0.43177117025374967	0.31867389639090105	0.33687022383386134	0.19771720730878065	0.5044946620893398	0.18050626612371543	0.07815803132928062	0.45903956952482733	0.049724636362587706	-0.019291661511466343	0.3820030004799193	0.04634414298081992	-0.06344384603855113	0.36741191494188835	0.04960218386471587	0.021516728820618017	0.4059086654951426	-0.07420432001520846	0.49786208552142097	0.3467762865856589	-0.2571380280521074	0.4538840313066737	0.522834327113311	-0.3213373337662959	0.24961784145787969	0.4751825717944295	-0.3200783386439092	0.1107869985357556	0.408449177624704	-0.3470630492907922	0.0967553221543691	0.3937180158539183	-0.38617879870741084	0.15681362432707607	0.4351838064862593
144	2.440677966101695	0.2662494814664157	0.5267486593808105	0.8671104292652863	0.27573539491995924	0.5256416814363405	1.3357678325602484	0.2674429415749216	0.5363761106621877	1.8071338894283864	0.24288510605388738	0.30982251475803224	1.7779161050044534	0.3101469082339151	0.33185191820159493	1.7702147249676286	0.2603283608088072	0.638965002606344	1.890661352325653	0.04577942265013848	0.5333193470702108	0.8866276256223035	0.06751850616437788	0.5056053325169477	1.339314144334283	0.07895360659303535	0.5143103571038419	1.81105836598814	0.12420523949735886	0.29998044725238626	1.7625679661524878	0.08077232327360406	0.30931302582540326	1.7619179935016411	0.08501656390090613	0.5452400175332617	1.858333434388955	0.08919549397728492	0.443848979621825	0.232451803924569	0.09072919604656744	0.369391294973458	-0.00889657248628537	0.0815259868966229	0.2972414145977201	0.12318240548643328	0.27323624097932114	0.4317728532272003	0.3187735093898851	0.337232017768008	0.19812207527835365	0.5076244954651001	0.1846037981567896	0.08166383214662785	0.45205377777417854	0.06802404352050438	0.004377439391926755	0.36830053477683833	0.060957852906684276	-0.05262117371386673	0.34540370083828936	0.062041607865892176	0.01137446425254418	0.39694830474935233	-0.07506569989907867	0.5137032149347232	0.3452494232568296	-0.2659475629877065	0.47889743165619686	0.5094115852664789	-0.3264517954276944	0.26024641250148556	0.4699431055849119	-0.3236883871953307	0.1069427600375789	0.40112191533066777	-0.3524481071832582	0.10761098569623234	0.38859832983635545	-0.38781777902308856	0.14906713093387441	0.4168551078299469
145	2.457627118644068	0.2620551013695718	0.5253549803528827	0.8670062951324018	0.274737711342595	0.524059900314775	1.3307194564643707	0.26736770195663206	0.5362709949302688	1.807079049516003	0.24364615163280903	0.31003260112965286	1.78243622724684	0.31495385499125006	0.33288388155596604	1.770802535503475	0.26031553637390276	0.6389783717385649	1.890780359191783	0.0458444110099942	0.5322671118668442	0.8905270189216163	0.06295387077151933	0.5192368864408142	1.3461782970399288	0.07905157268199889	0.5143486439648804	1.811181091206895	0.12712168598109466	0.31144353884053555	1.7702524793856724	0.08081402130933611	0.309160699835445	1.762116128937547	0.08482633537442663	0.5448701905094905	1.8581378851985553	0.08919246108279508	0.44403347883966404	0.23254218579021496	0.0909103515309019	0.3697263415716556	-0.0059974478583603545	0.0818530037713115	0.2979667349486305	0.12634277936477387	0.2731466562289549	0.4318954840844145	0.3186722582101239	0.3374593720060814	0.19796698836454335	0.5063079176599701	0.18356161592876324	0.06869842444186457	0.4471137045636781	0.09594886583004979	0.011705130462695132	0.3666344772946998	0.07053704564287262	-0.056508730951101635	0.3329018950078507	0.08093277374436686	-0.02667620920190002	0.3881295645014876	-0.07257780228719182	0.5240034954266526	0.34238188954576027	-0.27103900880075976	0.49150882737185503	0.5061543063271617	-0.3299825746297751	0.2631039571092125	0.4627691827184781	-0.3231207640695299	0.10771066937509716	0.3937484097309139	-0.3527528077523905	0.11113081796491539	0.38118158314181666	-0.3869540360053585	0.15929509710392512	0.4044735311670781
146	2.4745762711864407	0.25839578820829145	0.5241502935116921	0.8625923451819165	0.27638752040684095	0.5252795146650949	1.3312732719991949	0.2675257434191688	0.536292184212916	1.8071348792779556	0.2508863177863617	0.30803314899638407	1.780159936811815	0.31019553394309546	0.3321350261517115	1.7701893530356507	0.2603261214999566	0.6387348816773055	1.8905301419279528	0.045688048667077444	0.531247753308572	0.8819502627724293	0.06297115835765539	0.5191599346442668	1.3459791468089946	0.07909919399197889	0.5141560799790081	1.8110308657464111	0.12708787983058134	0.31119959454317864	1.7700069963975391	0.08082686066882744	0.3090334625485238	1.7619834692094913	0.08485453376839269	0.5449653420832948	1.8584154634844077	0.08923400184849165	0.44400932816348526	0.2327427183216567	0.0908710853260567	0.36917260306502336	-0.00885191132043928	0.08493368167442947	0.30760813784427	0.12690508176908868	0.2767519209554998	0.4424538539692857	0.31988229734243084	0.3273108223712332	0.24293324806986608	0.5054089928212985	0.20383209756126158	0.048082446926708336	0.43872851492718873	0.10545154654994976	-0.0022222059081393	0.36363664169737286	0.08398157787272613	-0.06488408255556954	0.33016549199998046	0.11789622831192026	-0.048626713566479185	0.3839748473798958	-0.07299903489174508	0.5227034959550285	0.3355501063316617	-0.2801723312939972	0.4901119711105009	0.4855901841443962	-0.334245892073244	0.25802138654192164	0.440226583005498	-0.3286822353080521	0.1059721206995766	0.3760382137789727	-0.35139813569658473	0.10011348871319176	0.3679891009629498	-0.3833620299111282	0.14122986827739042	0.393810982154928
147	2.4915254237288136	0.2585549677123437	0.5238927378050766	0.8581879311252508	0.2758595257238869	0.5264400262087051	1.3275130058459366	0.267102596250362	0.538688001094068	1.8034951718417054	0.24754612777869728	0.3222928088869816	1.790249760899973	0.31517955528604313	0.3340473868744022	1.771215109524036	0.2604366629988143	0.6390868720777677	1.8910689428531666	0.04658335542217558	0.5325582346279644	0.882777942717713	0.06371506864715507	0.5204086441266702	1.3508089924281654	0.07909842399272358	0.5145727657245798	1.8114041788812885	0.1243252772998441	0.3001274607165249	1.7629007376225492	0.08098994319470362	0.3095784081388183	1.7623301337719277	0.08684335208750334	0.5476139563336332	1.8558461914115314	0.08916551972740058	0.4441367955532179	0.23281430008844797	0.09091160407572464	0.3691157776264761	-0.008908940425968454	0.08497214275206548	0.3078308549438877	0.12688313299126142	0.27738230414310966	0.4435042061209874	0.3233837709745408	0.3285903800822947	0.2571220408234063	0.508625249856195	0.21792108863539442	0.030448302514836833	0.43488228087502423	0.1355655333646738	-0.015339281123770183	0.35932421324237523	0.10901320355726753	-0.09649266411409567	0.321995150378151	0.144788432016889	-0.06628681991825826	0.38367028430520644	-0.07287058955978688	0.5234693613311784	0.33192840670240303	-0.2835316815736206	0.4982822259622401	0.4694573108297641	-0.33104462171414306	0.2352046377744684	0.4209589419759293	-0.32735908106616374	0.09784358704610352	0.3655712915135035	-0.35189423282697424	0.08745154811789572	0.3613075985630214	-0.3789234881085318	0.1227165731667528	0.379168228946087
